<svg xmlns="http://www.w3.org/2000/svg" width="194.388" height="150.279" viewBox="0 0 194.388 150.279">
  <g id="Group_1719" data-name="Group 1719" transform="translate(-18.137 -3046.478)">
    <path id="Path_900" data-name="Path 900" d="M185.217,2351.317l-38.566,31.349-49.926,10.169L76.91,2353.02l30.312,9.8,46.842-6.032Z" transform="translate(-57.989 744.16)" fill="none" stroke="#707070" stroke-linecap="round" stroke-linejoin="round" stroke-width="1"/>
    <path id="Path_901" data-name="Path 901" d="M76.941,2351.876l54.092-38.977,32.37,8.006,21.773,29.56" transform="translate(-57.959 745)" fill="none" stroke="#707070" stroke-linecap="round" stroke-linejoin="round" stroke-width="1"/>
    <path id="Path_902" data-name="Path 902" d="M132.8,2312.9l-23.832,49.271,26.023-18.63L175.12,2312.9l11.289,37.419" transform="translate(-59.485 745)" fill="none" stroke="#707070" stroke-linecap="round" stroke-linejoin="round" stroke-width="1"/>
    <path id="Path_903" data-name="Path 903" d="M76.78,2351.912l13.047-36.157,5.814,36.157,1.134,39.688,57.434-35.592-20.846-12.146-1.985-30.962h42.26l36.678-10.921h25.864L225,2319.336l-1.813,17.9" transform="translate(-58.003 745)" fill="none" stroke="#707070" stroke-linecap="round" stroke-linejoin="round" stroke-width="1"/>
    <path id="Path_904" data-name="Path 904" d="M89.328,2315.916l41.5-2.92" transform="translate(-57.386 744.999)" fill="none" stroke="#707070" stroke-width="1"/>
    <path id="Path_905" data-name="Path 905" d="M133.288,2343.447l-36.854,8.4H76.64" transform="translate(-58.01 745.255)" fill="none" stroke="#707070" stroke-width="1"/>
    <path id="Path_906" data-name="Path 906" d="M107.309,2362.488,96.552,2391.91" transform="translate(-57.691 744.497)" fill="none" stroke="#707070" stroke-width="1"/>
    <path id="Path_900-2" data-name="Path 900" d="M78.755,0,20.681,5.224,0,46.783l44.325-15.6L80.53,42.845Z" transform="translate(212.025 3082.3) rotate(90)" fill="none" stroke="#707070" stroke-linecap="round" stroke-linejoin="round" stroke-width="1"/>
    <path id="Path_901-2" data-name="Path 901" d="M0,0,57.5,37.855l39.6-7L112.973,1.473" transform="translate(164.925 3082.363) rotate(90)" fill="none" stroke="#707070" stroke-linecap="round" stroke-linejoin="round" stroke-width="1"/>
    <path id="Path_902-2" data-name="Path 902" d="M13.326,84.955,0,30.965,45.473,56.3,56.839,87.782,68.622,48.725,34.43,0,16.89,20.355,35.945,24.9" transform="translate(212.025 3126.408) rotate(90)" fill="none" stroke="#707070" stroke-linecap="round" stroke-linejoin="round" stroke-width="1"/>
    <path id="Path_903-2" data-name="Path 903" d="M101.1,82.146l-27.881,4.22-22.295-.9L89.516,50.881l-8.7-13.73L61.15,14.935,20.871,0,48.59,45.251,13.618,79.165,0,41.426" transform="translate(206.389 3082.148) rotate(90)" fill="none" stroke="#707070" stroke-linecap="round" stroke-linejoin="round" stroke-width="1"/>
    <path id="Path_904-2" data-name="Path 904" d="M37.308,6.855,0,0,43.314,32.229,86.905,3.048" transform="translate(127.391 3095.891) rotate(90)" fill="none" stroke="#707070" stroke-width="1"/>
    <path id="Path_905-2" data-name="Path 905" d="M0,4.426,48.526,8.445l41.143,5.847,23.17-8.229L80.141,0" transform="translate(169.583 3081.996) rotate(90)" fill="none" stroke="#707070" stroke-width="1"/>
    <path id="Path_906-2" data-name="Path 906" d="M0,0,23.512,25.343l16.711-10.7" transform="translate(206.186 3103.112) rotate(90)" fill="none" stroke="#707070" stroke-width="1"/>
    <path id="Path_912" data-name="Path 912" d="M213.476,2548.586l-9.353,12.685-15.654-6.295-37.093,30.71" transform="translate(-92.941 584.228)" fill="none" stroke="#707070" stroke-width="1"/>
    <path id="Path_913" data-name="Path 913" d="M210.67,2578.029l-9-10.762,16.178-49.715" transform="translate(-90.391 578.233)" fill="none" stroke="#707070" stroke-width="1"/>
    <path id="Path_968" data-name="Path 968" d="M95.275,3101.13l-6.613,25.318,6.613,12.848-56.683-2.078,19.843,32.7,65.56,13.028" fill="none" stroke="#707070" stroke-width="1"/>
    <path id="Path_969" data-name="Path 969" d="M152.313,3046.978l-7.553,26.078-17.673,22.458" fill="none" stroke="#707070" stroke-width="1"/>
    <path id="Path_970" data-name="Path 970" d="M178.177,3046.978l27.78,55.561L167,3064.221l-22.242,8.69-29.214-14.679" fill="none" stroke="#707070" stroke-width="1"/>
  </g>
</svg>
