<svg xmlns="http://www.w3.org/2000/svg" width="150.95" height="145.367" viewBox="0 0 150.95 145.367">
  <g id="Group_1673" data-name="Group 1673" transform="translate(-31.636 -2382.224)">
    <path id="Path_900" data-name="Path 900" d="M40.326,55.865,20.707,41.611,0,0,31.679,10.247l48.954-6.3L53.606,22.96Z" transform="matrix(0.588, 0.809, -0.809, 0.588, 77.53, 2415.219)" fill="none" stroke="#707070" stroke-linecap="round" stroke-linejoin="round" stroke-width="1"/>
    <path id="Path_901" data-name="Path 901" d="M0,2.788,46.265,32.026l44.1,3.13L87.748,0" transform="matrix(0.588, 0.809, -0.809, 0.588, 118.05, 2401.961)" fill="none" stroke="#707070" stroke-linecap="round" stroke-linejoin="round" stroke-width="1"/>
    <path id="Path_902" data-name="Path 902" d="M27.2,0,0,65.845,27.2,46.374,69.133,14.352,48.477,59.322" transform="matrix(0.588, 0.809, -0.809, 0.588, 141.129, 2408.496)" fill="none" stroke="#707070" stroke-linecap="round" stroke-linejoin="round" stroke-width="1"/>
    <path id="Path_903" data-name="Path 903" d="M101.227,13.492,59.135,0V45.851L80.922,58.545l.771,46.695L53.788,76.73,40.611,80.971,20.9,95.743,19.712,54.264,13.635,16.476,0,54.264" transform="matrix(0.588, 0.809, -0.809, 0.588, 121.569, 2383.036)" fill="none" stroke="#707070" stroke-linecap="round" stroke-linejoin="round" stroke-width="1"/>
    <path id="Path_904" data-name="Path 904" d="M0,17.074,45.318,0" transform="matrix(0.588, 0.809, -0.809, 0.588, 130.004, 2393.915)" fill="none" stroke="#707070" stroke-width="1"/>
    <path id="Path_905" data-name="Path 905" d="M59.2,0,20.686,8.775H0" transform="matrix(0.588, 0.809, -0.809, 0.588, 84.52, 2409.764)" fill="none" stroke="#707070" stroke-width="1"/>
    <path id="Path_906" data-name="Path 906" d="M11.242,0,0,30.749" transform="matrix(0.588, 0.809, -0.809, 0.588, 81.489, 2438.101)" fill="none" stroke="#707070" stroke-width="1"/>
    <path id="Path_907" data-name="Path 907" d="M22.819,0,0,9.551,17.335,42.279Z" transform="matrix(0.588, 0.809, -0.809, 0.588, 129.31, 2477.269)" fill="none" stroke="#707070" stroke-linejoin="round" stroke-width="1"/>
    <path id="Path_908" data-name="Path 908" d="M138.27,2514.983l-20.419-4.729-29.016-31.166,24.073-16.12,9.027-16.98" transform="translate(-33.405 0.946)" fill="none" stroke="#707070" stroke-width="1"/>
  </g>
</svg>
