<svg xmlns="http://www.w3.org/2000/svg" width="117.976" height="115.249" viewBox="0 0 117.976 115.249">
  <g id="Group_1675" data-name="Group 1675" transform="translate(-187.549 -2505.508)">
    <path id="Path_900" data-name="Path 900" d="M78.755,0,20.681,5.224,0,46.783l44.325-15.6L80.53,42.845Z" transform="translate(305.025 2506.3) rotate(90)" fill="none" stroke="#707070" stroke-linecap="round" stroke-linejoin="round" stroke-width="1"/>
    <path id="Path_901" data-name="Path 901" d="M0,0,57.5,37.855l39.6-7L112.973,1.473" transform="translate(257.925 2506.363) rotate(90)" fill="none" stroke="#707070" stroke-linecap="round" stroke-linejoin="round" stroke-width="1"/>
    <path id="Path_902" data-name="Path 902" d="M13.326,84.955,0,30.965,45.473,56.3,56.839,87.782,68.622,48.725,34.43,0,16.89,20.355,35.945,24.9" transform="translate(305.025 2550.408) rotate(90)" fill="none" stroke="#707070" stroke-linecap="round" stroke-linejoin="round" stroke-width="1"/>
    <path id="Path_903" data-name="Path 903" d="M101.1,82.146l-27.881,4.22-22.295-.9L89.516,50.881l-8.7-13.73L61.15,14.935,20.871,0,48.59,45.251,13.618,79.165,0,41.426" transform="translate(299.389 2506.148) rotate(90)" fill="none" stroke="#707070" stroke-linecap="round" stroke-linejoin="round" stroke-width="1"/>
    <path id="Path_904" data-name="Path 904" d="M37.308,6.855,0,0,43.314,32.229,86.905,3.048" transform="translate(220.391 2519.891) rotate(90)" fill="none" stroke="#707070" stroke-width="1"/>
    <path id="Path_905" data-name="Path 905" d="M0,4.426,48.526,8.445l41.143,5.847,23.17-8.229L80.141,0" transform="translate(262.583 2505.996) rotate(90)" fill="none" stroke="#707070" stroke-width="1"/>
    <path id="Path_906" data-name="Path 906" d="M0,0,23.512,25.343l16.711-10.7" transform="translate(299.186 2527.112) rotate(90)" fill="none" stroke="#707070" stroke-width="1"/>
    <path id="Path_912" data-name="Path 912" d="M188.468,2554.977l15.654,6.295,9.353-12.685" transform="translate(0.059 8.228)" fill="none" stroke="#707070" stroke-width="1"/>
    <path id="Path_913" data-name="Path 913" d="M210.67,2578.029l-9-10.762,16.178-49.715" transform="translate(2.609 2.233)" fill="none" stroke="#707070" stroke-width="1"/>
  </g>
</svg>
