<svg xmlns="http://www.w3.org/2000/svg" width="55.954" height="40.908" viewBox="0 0 55.954 40.908">
  <g id="Group_1672" data-name="Group 1672" transform="translate(-76.385 -2312.565)">
    <path id="Path_900" data-name="Path 900" d="M132.126,2351.317l-45.115,21.167-10.1-20.3,15.453,5,23.88-3.075Z" transform="translate(-0.132 -19.26)" fill="none" stroke="#707070" stroke-linecap="round" stroke-linejoin="round" stroke-width="0.5"/>
    <path id="Path_901" data-name="Path 901" d="M76.941,2332.77l27.577-19.871,16.5,4.081,11.1,15.07" transform="translate(-0.131 0)" fill="none" stroke="#707070" stroke-linecap="round" stroke-linejoin="round" stroke-width="0.5"/>
    <path id="Path_902" data-name="Path 902" d="M121.121,2312.9l-12.15,25.119,13.267-9.5,20.457-15.621,5.755,19.077" transform="translate(-16.61 0)" fill="none" stroke="#707070" stroke-linecap="round" stroke-linejoin="round" stroke-width="0.5"/>
    <path id="Path_903" data-name="Path 903" d="M126.16,2312.9H104.615l1.012,15.785,10.628,6.192-29.281,18.146-.578-20.234-2.964-18.433-6.651,18.433" transform="translate(-0.075 0)" fill="none" stroke="#707070" stroke-linecap="round" stroke-linejoin="round" stroke-width="0.5"/>
    <path id="Path_904" data-name="Path 904" d="M89.328,2314.485,110.484,2313" transform="translate(-5.911 -0.048)" fill="none" stroke="#707070" stroke-width="0.5"/>
    <path id="Path_905" data-name="Path 905" d="M105.52,2343.447l-18.789,4.281H76.64" transform="translate(-0.01 -14.844)" fill="none" stroke="#707070" stroke-width="0.5"/>
    <path id="Path_906" data-name="Path 906" d="M102.036,2362.488l-5.484,15" transform="translate(-9.608 -24.564)" fill="none" stroke="#707070" stroke-width="0.5"/>
  </g>
</svg>
